PathFileType	4	(X/Y/Z)	Walk7.trc
DataRate	CameraRate	NumFrames	NumMarkers	Units	OrigDataRate	OrigDataStartFrame	OrigNumFrames
200.000000	200.000000	8	59	mm	200.000000	291	565
Frame#	Times		CLAV		STRN		RBack		RASI		RACR1		RUA1		RElbow		RFA1		RWRU		LACR1		LUA1		LFA1		LCAR		RTH1		RTH3		RTH2		RLFC		LTH1		LTH3		LLFC		LTB1		LTB3		LTB4		LMT1		LASI		LTH4		RCAR		LTH2		C7		LTB2		LToe		T10		LMMAL		RFHD		RTH4		LFHD		RPSI		LMT5		LLMAL		RWRR		LElbowM		LPSI		RBHD		RTB1		LElbow		LBHD		RTB2		RTB4		RTB3		RMT1		RToe		LWRU		LWRR		RMMAL		RLMAL		RMT5		RCAL		RElbowM		LCAL
			X1	Y1	Z1	X2	Y2	Z2	X3	Y3	Z3	X4	Y4	Z4	X5	Y5	Z5	X6	Y6	Z6	X7	Y7	Z7	X8	Y8	Z8	X9	Y9	Z9	X10	Y10	Z10	X11	Y11	Z11	X12	Y12	Z12	X13	Y13	Z13	X14	Y14	Z14	X15	Y15	Z15	X16	Y16	Z16	X17	Y17	Z17	X18	Y18	Z18	X19	Y19	Z19	X20	Y20	Z20	X21	Y21	Z21	X22	Y22	Z22	X23	Y23	Z23	X24	Y24	Z24	X25	Y25	Z25	X26	Y26	Z26	X27	Y27	Z27	X28	Y28	Z28	X29	Y29	Z29	X30	Y30	Z30	X31	Y31	Z31	X32	Y32	Z32	X33	Y33	Z33	X34	Y34	Z34	X35	Y35	Z35	X36	Y36	Z36	X37	Y37	Z37	X38	Y38	Z38	X39	Y39	Z39	X40	Y40	Z40	X41	Y41	Z41	X42	Y42	Z42	X43	Y43	Z43	X44	Y44	Z44	X45	Y45	Z45	X46	Y46	Z46	X47	Y47	Z47	X48	Y48	Z48	X49	Y49	Z49	X50	Y50	Z50	X51	Y51	Z51	X52	Y52	Z52	X53	Y53	Z53	X54	Y54	Z54	X55	Y55	Z55	X56	Y56	Z56	X57	Y57	Z57	X58	Y58	Z58	X59	Y59	Z59

291	1.455	-416.92	1341.9	-29.412	-337.42	1117.2	-16.63	-585.48	1315.4	74.319	-394.47	941.71	124.99	-467.73	1358.5	143.16	-484.84	1149.4	213.05	-501.72	1042.3	239.12	-415.7	912.34	241.69	-422.2	799.8	253.6	-478.03	1347.2	-199.37	-521.37	1139.6	-234.91	-533.6	897.08	-251.55	-560.04	734.84	-253.52	-474.72	735.31	164.72	-454.06	548.75	137.69	-399.56	656.41	123.44	-459.6	456.93	124.86	-465.36	740.82	-180.72	-417.87	564.52	-140.93	-403.58	456.85	-126.59	-369.81	360.18	-46.307	-392.77	174.1	-40.096	-380.34	265.1	-46.933	-245.61	30.113	-73.709	-387.14	938.96	-136.43	-442.26	648.5	-160.54	-367.84	770.53	248.47	-372.03	669.72	-134.95	-543.36	1416.8	-26.807	-406.43	267.14	-114.11	-290.2	39.138	-44.909	-576.48	1134.4	-13.339	-421.87	75.519	-2.4736	-381.44	1592.5	8.1901	-465.1	642.04	149.37	-389.34	1588.5	-64.613	-608.05	974.03	53.829	-331.99	22.263	-121.26	-439.8	61.299	-81.849	-374.83	816.65	199.47	-573.84	1017.5	-167.72	-606.05	975.18	-61.655	-548.5	1542.9	48.906	-513.19	345.68	62.3	-557.4	1025.1	-236.79	-557.11	1547.1	-78.018	-599.1	316.52	133.86	-593.26	298.12	64.793	-671.78	249.24	67.222	-727.29	74.599	69.19	-711.56	46.259	100.85	-593.97	789.04	-261.02	-541.43	777.55	-212.72	-755.33	212.17	41.377	-784.37	221.12	117.33	-773.67	92.209	135.81	-831.33	238.91	67.344	-513.99	1018.6	156.22	-487.45	29.429	-26.765
292	1.46	-411.55	1342.6	-29.764	-332.18	1117.9	-16.941	-580.23	1316.2	73.675	-389.39	942.65	124.97	-462.58	1359.2	142.86	-480.53	1150.1	212.6	-497.75	1043	238.46	-412.87	912.4	241.61	-420.39	799.97	253.83	-472.44	1348	-199.74	-514.75	1140.3	-235.64	-524.91	897.59	-252	-549.62	735.21	-253.92	-468.14	736.55	164.58	-445.55	550.21	137.64	-391.95	658.39	123.91	-449.33	458.77	124.76	-461	741.18	-180.88	-414.67	564.6	-141.09	-401.26	456.69	-126.63	-368.19	359.88	-46.275	-392.17	173.9	-40.023	-379.29	264.84	-46.858	-245.51	30.05	-73.782	-382.3	939.6	-137.26	-438.51	648.73	-160.69	-366.4	770.07	248.72	-368.25	669.48	-134.87	-537.91	1417.7	-27.24	-405.11	266.96	-114.15	-290.2	39.128	-44.938	-571.17	1135.2	-14.003	-421.76	75.486	-2.4338	-375.9	1593.2	7.9833	-457.58	643.42	149.29	-383.77	1589.3	-64.829	-602.59	974.94	53.516	-332.01	22.232	-121.3	-439.75	61.308	-81.814	-372.84	816.19	199.64	-567.39	1017.9	-169.09	-600.87	975.94	-61.942	-543	1543.6	48.572	-502.3	347.39	62.091	-550.07	1025.5	-237.93	-551.55	1548	-78.36	-588.12	317.95	133.53	-582.16	299.54	64.471	-660.53	250.44	66.851	-714.1	75.963	70.002	-698.18	47.675	101.91	-584.08	788.99	-261.94	-531.99	778.16	-212.97	-743.82	212.95	40.932	-773.05	222	116.85	-760.86	93.703	136.36	-820.23	239.04	66.648	-509.9	1019.2	155.59	-487.44	29.487	-26.718
293	1.465	-406.19	1343.4	-30.101	-326.95	1118.6	-17.251	-575	1317	73.053	-384.34	943.54	124.96	-457.42	1359.9	142.57	-476.21	1150.7	212.14	-493.78	1043.7	237.81	-410.06	912.46	241.52	-418.62	800.15	254.05	-466.89	1348.9	-200.09	-508.15	1140.9	-236.35	-516.16	898.12	-252.44	-539.09	735.63	-254.31	-461.64	737.81	164.46	-437.11	551.72	137.58	-384.42	660.4	124.42	-439.15	460.64	124.65	-456.65	741.53	-181.01	-411.52	564.67	-141.22	-398.96	456.54	-126.64	-366.61	359.57	-46.216	-391.57	173.72	-39.939	-378.25	264.59	-46.768	-245.42	29.99	-73.841	-377.48	940.21	-138.11	-434.79	648.93	-160.8	-365	769.62	248.99	-364.5	669.21	-134.78	-532.47	1418.5	-27.647	-403.81	266.78	-114.16	-290.2	39.117	-44.963	-565.86	1136.1	-14.661	-421.66	75.451	-2.387	-370.36	1594	7.8041	-450.13	644.83	149.23	-378.2	1590.1	-65.018	-597.14	975.86	53.235	-332.03	22.201	-121.34	-439.7	61.318	-81.773	-370.88	815.75	199.82	-560.93	1018.3	-170.48	-595.7	976.69	-62.201	-537.5	1544.4	48.271	-491.4	349.08	61.865	-542.74	1026	-239.07	-545.99	1548.9	-78.67	-577.09	319.24	133.19	-571	300.84	64.132	-649.16	251.43	66.451	-700.63	77.082	70.806	-684.48	48.921	102.98	-574.08	788.96	-262.83	-522.46	778.8	-213.2	-732.13	213.43	40.449	-761.56	222.55	116.32	-747.77	94.919	136.91	-808.99	238.79	65.893	-505.81	1019.9	155	-487.42	29.546	-26.669
294	1.47	-400.84	1344.1	-30.424	-321.73	1119.3	-17.564	-569.78	1317.8	72.453	-379.3	944.41	124.97	-452.27	1360.6	142.3	-471.86	1151.3	211.67	-489.82	1044.4	237.18	-407.27	912.52	241.43	-416.88	800.33	254.27	-461.37	1349.7	-200.43	-501.57	1141.6	-237.05	-507.37	898.69	-252.87	-528.44	736.1	-254.7	-455.22	739.07	164.37	-428.72	553.26	137.51	-376.95	662.43	124.97	-429.05	462.54	124.53	-452.32	741.85	-181.11	-408.39	564.72	-141.31	-396.69	456.38	-126.62	-365.05	359.28	-46.133	-390.98	173.54	-39.847	-377.21	264.34	-46.665	-245.34	29.932	-73.888	-372.68	940.81	-138.98	-431.09	649.12	-160.88	-363.62	769.2	249.27	-360.78	668.92	-134.68	-527.05	1419.4	-28.028	-402.54	266.61	-114.16	-290.2	39.104	-44.985	-560.58	1136.9	-15.312	-421.55	75.416	-2.3333	-364.83	1594.7	7.6502	-442.75	646.25	149.18	-372.65	1590.9	-65.18	-591.69	976.78	52.984	-332.06	22.17	-121.38	-439.64	61.332	-81.727	-368.93	815.31	200.01	-554.46	1018.7	-171.89	-590.53	977.42	-62.431	-532.01	1545.1	48.001	-480.49	350.74	61.628	-535.39	1026.4	-240.22	-540.45	1549.8	-78.949	-566.03	320.4	132.83	-559.79	302.03	63.782	-637.66	252.22	66.031	-686.89	77.956	71.593	-670.49	49.991	104.05	-563.99	788.95	-263.68	-512.85	779.48	-213.42	-720.27	213.59	39.936	-749.92	222.78	115.77	-734.44	95.857	137.43	-797.59	238.16	65.095	-501.7	1020.6	154.45	-487.4	29.606	-26.619
295	1.475	-395.51	1344.8	-30.733	-316.52	1120	-17.879	-564.58	1318.6	71.875	-374.26	945.25	124.98	-447.13	1361.3	142.04	-467.48	1151.9	211.18	-485.86	1045.1	236.55	-404.5	912.58	241.34	-415.16	800.51	254.48	-455.88	1350.6	-200.75	-495	1142.3	-237.74	-498.53	899.29	-253.27	-517.68	736.63	-255.07	-448.86	740.33	164.3	-420.38	554.83	137.43	-369.53	664.48	125.55	-419.04	464.47	124.4	-448.02	742.15	-181.18	-405.31	564.76	-141.38	-394.45	456.22	-126.58	-363.53	358.98	-46.029	-390.4	173.36	-39.749	-376.17	264.09	-46.551	-245.27	29.878	-73.924	-367.89	941.4	-139.85	-427.44	649.29	-160.91	-362.26	768.79	249.57	-357.07	668.61	-134.57	-521.64	1420.2	-28.385	-401.3	266.46	-114.13	-290.19	39.09	-45.003	-555.31	1137.7	-15.954	-421.45	75.381	-2.2735	-359.3	1595.4	7.5196	-435.42	647.67	149.13	-367.1	1591.7	-65.32	-586.25	977.69	52.762	-332.08	22.14	-121.41	-439.59	61.348	-81.674	-367.01	814.87	200.21	-547.98	1019.1	-173.32	-585.36	978.12	-62.631	-526.52	1545.8	47.763	-469.57	352.37	61.383	-528.02	1026.9	-241.38	-534.92	1550.6	-79.199	-554.92	321.42	132.46	-548.52	303.11	63.426	-626.05	252.8	65.597	-672.9	78.593	72.358	-656.23	50.884	105.11	-553.8	788.98	-264.51	-503.16	780.19	-213.62	-708.26	213.45	39.401	-738.13	222.68	115.19	-720.88	96.518	137.92	-786.05	237.16	64.267	-497.58	1021.2	153.92	-487.39	29.666	-26.567
296	1.48	-390.2	1345.5	-31.028	-311.32	1120.7	-18.198	-559.39	1319.4	71.322	-369.2	946.08	125	-441.98	1361.9	141.79	-463.07	1152.5	210.69	-481.91	1045.7	235.93	-401.74	912.64	241.25	-413.46	800.7	254.7	-450.43	1351.5	-201.06	-488.44	1143	-238.42	-489.65	899.93	-253.65	-506.82	737.23	-255.44	-442.58	741.58	164.25	-412.08	556.41	137.34	-362.17	666.55	126.15	-409.12	466.41	124.25	-443.75	742.42	-181.22	-402.27	564.79	-141.41	-392.23	456.06	-126.51	-362.03	358.69	-45.907	-389.81	173.2	-39.647	-375.14	263.85	-46.429	-245.21	29.828	-73.951	-363.1	941.98	-140.74	-423.82	649.43	-160.92	-360.92	768.4	249.88	-353.39	668.27	-134.47	-516.25	1421	-28.719	-400.08	266.31	-114.09	-290.19	39.075	-45.017	-550.05	1138.6	-16.584	-421.34	75.347	-2.2083	-353.78	1596	7.4099	-428.14	649.1	149.09	-361.57	1592.5	-65.438	-580.81	978.58	52.568	-332.1	22.109	-121.45	-439.53	61.368	-81.616	-365.1	814.45	200.41	-541.48	1019.5	-174.78	-580.19	978.81	-62.799	-521.04	1546.5	47.553	-458.65	353.95	61.134	-520.64	1027.3	-242.55	-529.4	1551.5	-79.419	-543.79	322.31	132.08	-537.2	304.06	63.072	-614.32	253.18	65.155	-658.69	79.003	73.093	-641.73	51.602	106.15	-543.54	789.04	-265.31	-493.39	780.94	-213.81	-696.09	213.02	38.853	-726.19	222.27	114.59	-707.09	96.904	138.39	-774.36	235.79	63.423	-493.46	1021.8	153.42	-487.37	29.726	-26.514
297	1.485	-384.9	1346.2	-31.311	-306.12	1121.4	-18.524	-554.22	1320.1	70.792	-364.12	946.91	125	-436.83	1362.5	141.55	-458.64	1153	210.18	-477.97	1046.4	235.31	-398.99	912.7	241.15	-411.78	800.9	254.91	-445	1352.3	-201.36	-481.9	1143.7	-239.09	-480.72	900.6	-254.02	-495.88	737.9	-255.79	-436.34	742.82	164.22	-403.81	558.02	137.23	-354.85	668.63	126.76	-399.3	468.35	124.1	-439.52	742.66	-181.23	-399.27	564.79	-141.41	-390.03	455.89	-126.42	-360.56	358.4	-45.768	-389.23	173.04	-39.543	-374.1	263.61	-46.3	-245.15	29.782	-73.97	-358.33	942.54	-141.63	-420.24	649.55	-160.88	-359.59	768.03	250.2	-349.73	667.9	-134.37	-510.88	1421.8	-29.03	-398.89	266.17	-114.03	-290.18	39.061	-45.029	-544.81	1139.3	-17.201	-421.24	75.313	-2.1389	-348.26	1596.7	7.3195	-420.89	650.51	149.06	-356.04	1593.2	-65.537	-575.4	979.45	52.399	-332.13	22.079	-121.48	-439.48	61.391	-81.553	-363.2	814.04	200.63	-534.96	1019.9	-176.25	-575.01	979.47	-62.937	-515.56	1547.2	47.372	-447.72	355.49	60.888	-513.25	1027.8	-243.72	-523.9	1552.4	-79.61	-532.64	323.07	131.7	-525.83	304.89	62.724	-602.48	253.36	64.711	-644.25	79.198	73.794	-626.97	52.152	107.15	-533.2	789.14	-266.08	-483.56	781.74	-213.99	-683.77	212.31	38.299	-714.11	221.55	113.98	-693.09	97.02	138.81	-762.53	234.07	62.577	-489.36	1022.5	152.93	-487.36	29.785	-26.46
298	1.49	-379.62	1346.9	-31.581	-300.93	1122.1	-18.858	-549.06	1320.9	70.287	-359.01	947.74	125	-431.68	1363.1	141.32	-454.17	1153.6	209.67	-474.03	1047	234.69	-396.26	912.76	241.06	-410.11	801.1	255.12	-439.6	1353.2	-201.64	-475.37	1144.4	-239.76	-471.77	901.32	-254.37	-484.85	738.63	-256.12	-430.16	744.05	164.2	-395.57	559.63	137.12	-347.57	670.71	127.39	-389.57	470.3	123.93	-435.32	742.87	-181.22	-396.31	564.77	-141.38	-387.86	455.73	-126.3	-359.11	358.12	-45.615	-388.65	172.89	-39.437	-373.06	263.38	-46.166	-245.1	29.74	-73.982	-353.55	943.09	-142.51	-416.69	649.65	-160.81	-358.27	767.68	250.53	-346.09	667.5	-134.29	-505.53	1422.6	-29.321	-397.72	266.03	-113.94	-290.17	39.047	-45.038	-539.58	1140.1	-17.803	-421.14	75.282	-2.0665	-342.74	1597.3	7.2465	-413.67	651.92	149.04	-350.51	1593.9	-65.618	-569.99	980.29	52.255	-332.16	22.048	-121.51	-439.43	61.418	-81.486	-361.31	813.64	200.86	-528.43	1020.3	-177.74	-569.83	980.11	-63.045	-510.08	1547.9	47.218	-436.8	356.98	60.649	-505.85	1028.3	-244.9	-518.4	1553.2	-79.774	-521.48	323.73	131.32	-514.43	305.59	62.387	-590.55	253.34	64.27	-629.59	79.194	74.454	-611.98	52.54	108.1	-522.78	789.28	-266.81	-473.66	782.58	-214.15	-671.3	211.33	37.745	-701.89	220.53	113.37	-678.87	96.871	139.2	-750.56	232	61.738	-485.28	1023.1	152.44	-487.34	29.844	-26.405
